<?xml version="1.0" encoding="UTF-8"?>
<!DOCTYPE svg PUBLIC "-//W3C//DTD SVG 1.1//EN" "http://www.w3.org/Graphics/SVG/1.1/DTD/svg11.dtd">
<!-- Creator: CorelDRAW 2017 -->
<svg xmlns="http://www.w3.org/2000/svg" xml:space="preserve" width="6.94391in" height="6.94391in" version="1.1" style="shape-rendering:geometricPrecision; text-rendering:geometricPrecision; image-rendering:optimizeQuality; fill-rule:evenodd; clip-rule:evenodd"
viewBox="0 0 6944 6944"
 xmlns:xlink="http://www.w3.org/1999/xlink">
 <defs>
  <style type="text/css">
   <![CDATA[
    .str2 {stroke:#333333;stroke-width:27.7795;stroke-linejoin:round}
    .str0 {stroke:#333333;stroke-width:13.8898;stroke-linejoin:round}
    .str6 {stroke:#333333;stroke-width:27.7795;stroke-linecap:round;stroke-linejoin:round}
    .str1 {stroke:#333333;stroke-width:13.8898;stroke-linecap:round;stroke-linejoin:round}
    .str3 {stroke:white;stroke-width:13.8898;stroke-linecap:round;stroke-linejoin:round}
    .str4 {stroke:#333333;stroke-width:6.94489;stroke-linecap:round;stroke-linejoin:round}
    .str5 {stroke:white;stroke-width:6.94489;stroke-linecap:round;stroke-linejoin:round}
    .fil5 {fill:none;fill-rule:nonzero}
    .fil0 {fill:#FEFEFE}
    .fil6 {fill:#006DB0;fill-rule:nonzero}
    .fil4 {fill:#333333;fill-rule:nonzero}
    .fil2 {fill:#78B2D5;fill-rule:nonzero}
    .fil8 {fill:#78B2D5;fill-rule:nonzero}
    .fil1 {fill:#BEDAEA;fill-rule:nonzero}
    .fil10 {fill:#BEDAEA;fill-rule:nonzero}
    .fil3 {fill:white;fill-rule:nonzero}
    .fil7 {fill:#78B2D5;fill-rule:nonzero}
    .fil9 {fill:#78B2D5;fill-rule:nonzero}
   ]]>
  </style>
 </defs>
 <g id="Layer_x0020_1">
  <metadata id="CorelCorpID_0Corel-Layer"/>
  <g id="_1301406378736">
   <rect class="fil0" width="6944" height="6944"/>
   <path class="fil1" d="M5897 3052c21,-575 -185,-1157 -641,-1435 -225,-137 -488,-217 -751,-205 -282,13 -548,127 -814,222 -266,94 -554,170 -829,103 -199,-49 -373,-169 -570,-224 -773,-215 -1447,663 -1068,1360 93,171 236,308 356,462 120,153 221,338 205,532 -13,161 -105,304 -143,460 -73,300 71,630 320,813 249,183 584,226 884,151 299,-75 564,-259 772,-488 111,-122 220,-265 380,-306 153,-40 312,25 467,55 287,55 595,-15 830,-189 376,-278 582,-792 601,-1312z"/>
   <path class="fil2" d="M5300 5863c0,207 -841,376 -1878,376 -1037,0 -1878,-168 -1878,-376 0,-207 841,-376 1878,-376 1037,0 1878,168 1878,376z"/>
   <g>
    <path class="fil3 str0" d="M5415 2527l-1354 0c-46,0 -84,-38 -84,-84l0 -1492c0,-46 38,-84 84,-84l1354 0c46,0 84,38 84,84l0 1492c0,46 -38,84 -84,84z"/>
    <path class="fil4 str0" d="M5499 1038l-1521 0 0 -87c0,-46 38,-84 84,-84l1354 0c46,0 84,38 84,84l0 87z"/>
    <g>
     <g>
      <line class="fil5 str1" x1="4061" y1="1753" x2="4673" y2= "1753" />
      <line class="fil5 str1" x1="4061" y1="1832" x2="4673" y2= "1832" />
      <line class="fil5 str1" x1="4061" y1="1912" x2="4673" y2= "1912" />
      <line class="fil5 str1" x1="4061" y1="1991" x2="4673" y2= "1991" />
      <line class="fil5 str1" x1="4061" y1="2070" x2="4673" y2= "2070" />
      <line class="fil5 str1" x1="4061" y1="2149" x2="4673" y2= "2149" />
      <line class="fil5 str1" x1="4061" y1="2228" x2="4673" y2= "2228" />
      <line class="fil5 str1" x1="4061" y1="2307" x2="4673" y2= "2307" />
      <line class="fil5 str1" x1="4061" y1="2386" x2="4673" y2= "2386" />
     </g>
     <g>
      <line class="fil5 str1" x1="4780" y1="1753" x2="5393" y2= "1753" />
      <line class="fil5 str1" x1="4780" y1="1832" x2="5393" y2= "1832" />
      <line class="fil5 str1" x1="4780" y1="1912" x2="5393" y2= "1912" />
      <line class="fil5 str1" x1="4780" y1="1991" x2="5393" y2= "1991" />
      <line class="fil5 str1" x1="4780" y1="2070" x2="5393" y2= "2070" />
      <line class="fil5 str1" x1="4780" y1="2149" x2="5393" y2= "2149" />
      <line class="fil5 str1" x1="4780" y1="2228" x2="5393" y2= "2228" />
      <line class="fil5 str1" x1="4780" y1="2307" x2="5393" y2= "2307" />
      <line class="fil5 str1" x1="4780" y1="2386" x2="5393" y2= "2386" />
     </g>
    </g>
    <g>
     <path class="fil6" d="M4470 1253c3,-9 5,-21 5,-29 0,-36 -36,-38 -72,-38l-9 0 0 -8 156 0 0 8c-41,0 -55,26 -68,64l-83 249c-6,18 -12,32 -31,32l-2 0 -73 -238 -69 205c-6,18 -12,32 -31,32l-2 0 -107 -345 -38 0 0 -8 137 0 0 8 -39 0 79 273 3 0 60 -182 -28 -91 -38 0 0 -8 137 0 0 8 -39 0 79 273 3 0 68 -205z"/>
    </g>
    <g>
     <polygon class="fil6 str2" points="5397,1668 4767,1668 4767,1099 5397,1099 "/>
     <path class="fil4 str0" d="M5397 1337c-17,1 -38,3 -63,9 -96,21 -121,158 -229,158 -96,0 -104,-129 -241,-146 -41,-5 -73,3 -97,17l0 293 630 0 0 -331z"/>
     <path class="fil3 str0" d="M4976 1229c0,39 -32,71 -71,71 -39,0 -71,-32 -71,-71 0,-39 32,-71 71,-71 39,0 71,32 71,71z"/>
    </g>
    <polygon class="fil3 str0" points="5426,971 4023,971 4023,917 5426,917 "/>
   </g>
   <g>
    <path class="fil6 str0" d="M3089 1847l-1178 0 0 -693c0,-50 40,-90 90,-90l999 0c50,0 90,40 90,90l0 693z"/>
    <polygon class="fil4 str0" points="3089,1847 1910,1847 1910,1735 3089,1735 "/>
    <polygon class="fil3 str0" points="3035,1808 1964,1808 1964,1773 3035,1773 "/>
    <g>
     <path class="fil4 str0" d="M2662 1419c0,-90 -73,-163 -163,-163 -90,0 -163,73 -163,163 0,90 73,163 163,163 90,0 163,-73 163,-163z"/>
     <polygon class="fil3 str0" points="2426,1318 2602,1419 2426,1521 "/>
    </g>
   </g>
   <g>
    <path class="fil4 str0" d="M2579 2636l-1119 0c-22,0 -39,-18 -39,-39l0 -426c0,-22 18,-39 39,-39l1119 0c22,0 39,18 39,39l0 426c0,22 -18,39 -39,39z"/>
    <g>
     <path class="fil1" d="M1564 2200l6 10c-26,15 -51,41 -51,71 0,26 19,42 37,42 4,0 6,-2 6,-6 0,-3 -2,-5 -6,-6 -9,-2 -17,-10 -17,-25 0,-19 15,-31 34,-31 20,0 35,16 35,36 0,25 -21,43 -46,43 -32,0 -56,-21 -56,-54 0,-35 27,-64 57,-81zm119 0l0 0 6 10c-26,15 -51,41 -51,71 0,26 19,42 37,42 4,0 6,-2 6,-6 0,-3 -2,-5 -6,-6 -9,-2 -17,-10 -17,-25 0,-19 15,-31 34,-31 20,0 35,16 35,36 0,25 -21,43 -46,43 -32,0 -56,-21 -56,-54 0,-35 27,-64 57,-81z"/>
    </g>
    <line class="fil5 str3" x1="1798" y1="2303" x2="2479" y2= "2303" />
    <line class="fil5 str3" x1="1798" y1="2362" x2="2479" y2= "2362" />
    <line class="fil5 str3" x1="1798" y1="2420" x2="2479" y2= "2420" />
    <line class="fil5 str3" x1="1798" y1="2479" x2="2479" y2= "2479" />
   </g>
   <g>
    <g>
     <path class="fil3 str0" d="M3930 3165c0,0 148,316 148,332 0,17 -131,88 -156,103 -25,15 -60,30 -60,30l15 146c0,0 226,-52 321,-103 95,-52 91,-110 70,-196 -22,-86 -168,-420 -168,-420l-169 108z"/>
     <path class="fil7" d="M4197 3673c95,-52 91,-110 70,-196 -22,-86 -168,-420 -168,-420l-24 15 -8 14c0,0 136,334 144,446 6,75 -145,168 -245,222 74,-20 174,-50 230,-80z"/>
     <path class="fil3 str0" d="M2863 3095c0,0 -108,395 -111,465 -3,70 214,208 223,216 8,8 -12,-240 -12,-240l74 -361 -173 -80z"/>
     <path class="fil7" d="M2974 3696c-65,-55 -158,-132 -168,-165 -17,-50 107,-404 107,-404l-2 -11 -47 -22c0,0 -108,395 -111,465 -3,70 214,208 223,216 3,3 2,-34 -1,-80z"/>
    </g>
    <g>
     <path class="fil6 str0" d="M3370 2698c0,0 -42,30 -123,33 -81,3 -85,-55 -186,-55 -122,1 -276,387 -276,387 0,0 76,75 151,106 75,32 130,38 130,38l12 254 824 0 10 -254 258 -168c0,0 -126,-226 -188,-311 -61,-85 -165,-53 -196,-32 -32,22 -125,27 -160,22 -35,-5 -133,-37 -133,-37 0,0 -53,-45 -123,15z"/>
     <line class="fil5 str4" x1="3074" y1="2787" x2="3071" y2= "3209" />
     <path class="fil5 str4" d="M3104 2826c0,0 12,206 55,321"/>
     <path class="fil5 str4" d="M3167 3163c0,0 22,61 35,81"/>
     <path class="fil5 str4" d="M3131 2802c0,0 25,123 66,219"/>
     <path class="fil5 str4" d="M3847 2839c0,0 -40,163 -75,236"/>
     <line class="fil5 str4" x1="3912" y1="3208" x2="3910" y2= "2879" />
     <path class="fil5 str4" d="M3893 2885c0,0 -30,208 -103,317"/>
     <path class="fil5 str4" d="M3857 3161c0,0 -33,63 -56,96"/>
     <path class="fil5 str4" d="M3323 2723c0,0 23,143 56,216 33,73 91,88 141,66 50,-22 86,-128 83,-264"/>
    </g>
    <g>
     <path class="fil8 str0" d="M3205 2424c0,0 -32,-55 -56,-27 -25,28 20,93 45,115 25,22 43,8 42,-15 -2,-23 -30,-73 -30,-73z"/>
     <path class="fil8 str0" d="M3708 2424c0,0 32,-55 56,-27 25,28 -20,93 -45,115 -25,22 -43,8 -42,-15 2,-23 30,-73 30,-73z"/>
     <path class="fil3 str0" d="M3355 2686c0,0 30,135 60,209 30,75 86,75 110,27 23,-48 38,-228 38,-228 0,0 -156,22 -208,-8z"/>
     <path class="fil3 str0" d="M3209 2442c0,0 43,153 125,243 81,90 111,111 155,105 43,-7 90,-63 155,-181 65,-118 70,-208 75,-216 5,-8 -13,-174 -106,-246 -93,-71 -196,-103 -286,-25 -90,78 -146,206 -116,321z"/>
     <path class="fil9" d="M3611 2146c-93,-71 -196,-103 -286,-25 -90,78 -146,206 -116,321 0,0 8,29 24,70 0,-5 1,-10 2,-15 20,-63 78,-185 276,-129 157,44 137,182 123,256 3,-5 6,-10 9,-15 65,-118 70,-208 75,-216 5,-8 -13,-174 -106,-246z"/>
     <path class="fil5 str1" d="M3488 2522c0,0 -10,65 -8,98 2,33 12,43 -3,47 -15,3 -32,-20 -32,-20"/>
     <path class="fil5 str1" d="M3322 2548c0,0 33,25 66,2"/>
     <path class="fil5 str1" d="M3533 2548c0,0 33,25 66,2"/>
     <path class="fil5 str1" d="M3428 2492c0,0 -32,-78 -136,-42"/>
     <path class="fil5 str1" d="M3515 2483c0,0 27,-76 121,-32"/>
     <path class="fil5 str1" d="M3448 2554c0,43 -49,77 -110,77 -61,0 -110,-35 -110,-77 0,-43 46,-61 106,-61 61,0 113,18 113,61z"/>
     <path class="fil5 str1" d="M3701 2554c0,43 -49,77 -110,77 -61,0 -110,-35 -110,-77 0,-43 46,-61 106,-61 61,0 113,18 113,61z"/>
    </g>
    <g>
     <path class="fil3 str0" d="M2300 3886l-7 1684c0,11 9,20 20,20 11,0 20,-9 20,-19l48 -1682 -81 -2z"/>
     <path class="fil3 str0" d="M2187 4280l-7 1741c0,11 9,20 20,20 11,0 20,-9 20,-19l48 -1739 -81 -2z"/>
     <path class="fil3 str0" d="M4628 3886l7 1684c0,11 -9,20 -20,20 -11,0 -20,-9 -20,-19l-48 -1682 81 -2z"/>
     <path class="fil3 str0" d="M4741 4280l7 1741c0,11 -9,20 -20,20 -11,0 -20,-9 -20,-19l-48 -1739 81 -2z"/>
    </g>
    <g>
     <path class="fil3 str0" d="M2976 4352l-4 1545c0,9 6,16 13,16 7,0 12,-7 13,-16l30 -1544 -52 -2z"/>
     <path class="fil3 str0" d="M3954 4303l4 1348c0,8 -5,14 -11,14 -6,0 -11,-6 -11,-13l-26 -1347 44 -2z"/>
     <path class="fil3 str0" d="M2961 4303l4 1348c0,8 -5,14 -11,14 -6,0 -11,-6 -11,-13l-26 -1347 44 -2z"/>
     <path class="fil3 str0" d="M3926 4352l4 1545c0,9 -6,16 -13,16 -7,0 -12,-7 -13,-16l-30 -1544 52 -2z"/>
     <path class="fil3 str0" d="M4062 4319c0,78 -277,141 -618,141 -341,0 -618,-63 -618,-141 0,-78 277,-141 618,-141 341,0 618,63 618,141z"/>
    </g>
    <g>
     <path class="fil3 str0" d="M3143 5518c0,0 -32,46 -9,69 23,23 46,14 44,37 -2,23 -39,102 -72,185 -32,83 35,167 97,144 63,-23 56,-255 65,-296 9,-42 16,-49 14,-88 -2,-39 -5,-81 -35,-86 -30,-5 -90,19 -104,35z"/>
     <path class="fil2 str0" d="M3243 5890c-42,-16 -106,-13 -142,-9 12,52 58,89 102,73 18,-7 31,-31 39,-64z"/>
     <path class="fil3 str0" d="M3071 5416c0,0 67,113 86,144 19,30 81,21 88,-21 7,-42 -25,-157 -25,-157l-139 35 -9 0z"/>
     <path class="fil2 str0" d="M2912 5236c0,0 -19,30 -9,51 9,21 35,81 51,111 16,30 90,49 176,35 86,-14 134,-53 137,-88 2,-35 -14,-81 -25,-137 -12,-56 -42,-53 -83,-53 -42,0 -211,49 -245,81z"/>
     <path class="fil4 str0" d="M3162 4555c1,-57 34,-85 37,-124 5,-77 -7,-132 -13,-154l-63 -87c-182,2 -313,5 -315,6 -7,2 -12,42 -16,74 0,0 -77,10 -63,225 2,30 80,377 86,417 35,242 112,363 112,363 0,0 7,30 97,23 90,-7 181,-67 181,-67 0,0 -46,-470 -42,-676z"/>
     <path class="fil3 str0" d="M2779 4235c0,0 -96,14 -154,81 -59,66 -9,111 105,99 114,-12 245,-129 251,-135 6,-6 -119,-85 -202,-45z"/>
     <path class="fil3 str0" d="M2949 4278c0,0 102,5 181,28 79,23 218,69 250,69 32,0 23,-120 23,-144 0,-23 -417,-37 -468,-37 -51,0 14,83 14,83z"/>
     <path class="fil2 str0" d="M3403 4231c0,0 -37,19 -51,88 -14,69 -32,106 -5,125 28,19 148,32 167,14 19,-19 69,-111 79,-171 9,-60 -190,-56 -190,-56z"/>
     <path class="fil4 str0" d="M3560 4254c0,0 -37,42 -51,83 -14,42 -23,97 -23,97 0,0 56,14 130,46 74,32 199,56 319,83 120,28 153,56 194,56 42,0 93,-32 157,-111 65,-79 9,-245 -56,-296 -65,-51 -412,-93 -458,-79 -46,14 -213,120 -213,120z"/>
     <path class="fil2 str0" d="M2691 4417c-9,-49 -37,-91 -54,-114 -4,4 -8,8 -12,13 -52,58 -19,100 67,101z"/>
     <path class="fil5 str5" d="M3155 4454c0,0 -48,511 -145,591"/>
     <path class="fil5 str5" d="M3121 4939c0,0 -38,167 -137,233"/>
     <path class="fil5 str5" d="M3736 4361c0,0 -148,9 -51,74 97,65 273,106 273,106"/>
    </g>
    <g>
     <path class="fil4 str0" d="M4812 4186l-50 -45 -116 -250c-11,-23 -34,-38 -61,-38l-2244 0c-26,0 -50,15 -61,38l-144 311 -24 -9 0 71 1 -1c2,18 18,34 40,34l2619 0c23,0 39,-17 40,-37l-1 -75z"/>
     <path class="fil3 str0" d="M4773 4232l-2619 0c-29,0 -48,-28 -37,-54l163 -353c11,-23 34,-38 61,-38l2244 0c26,0 50,15 61,38l163 353c12,25 -8,54 -37,54z"/>
     <path class="fil10" d="M2286 3995c0,0 -59,41 -22,56 37,15 463,4 515,-11 52,-15 111,-152 111,-174 0,-22 -75,-38 -102,-39 -28,-1 -391,21 -391,21l-111 148z"/>
     <path class="fil10" d="M4559 4003c0,35 -68,63 -152,63 -84,0 -152,-28 -152,-63 0,-35 68,-63 152,-63 84,0 152,28 152,63z"/>
     <path class="fil10" d="M3984 4041c0,56 -244,102 -545,102 -301,0 -545,-46 -545,-102 0,-56 244,-102 545,-102 301,0 545,46 545,102z"/>
    </g>
    <g>
     <path class="fil2 str0" d="M4295 3754c0,0 -10,-40 -43,-27 -33,13 -30,101 -23,151 7,50 52,27 52,27l0 -30c0,0 -17,13 -25,-5 -8,-18 -7,-110 2,-108 8,2 25,30 25,30 0,0 5,-3 13,-38z"/>
     <path class="fil2 str0" d="M4272 3761l0 218c0,26 59,46 132,46 73,0 132,-21 132,-46l0 -218 -264 0z"/>
     <path class="fil3 str0" d="M4535 3761c0,22 -59,40 -132,40 -73,0 -132,-18 -132,-40 0,-22 59,-40 132,-40 73,0 132,18 132,40z"/>
     <path class="fil3 str0" d="M4518 3761c0,19 -51,35 -115,35 -63,0 -115,-16 -115,-35 0,-19 51,-35 115,-35 63,0 115,16 115,35z"/>
     <path class="fil4 str0" d="M4315 3783c21,8 53,13 88,13 36,0 67,-5 88,-13 -21,-8 -53,-13 -88,-13 -36,0 -67,5 -88,13z"/>
    </g>
    <g>
     <polygon class="fil3 str0" points="2270,3861 2272,3936 2775,3941 2775,3854 "/>
     <polygon class="fil3 str0" points="2775,3941 2848,3783 2848,3736 2772,3869 "/>
     <polygon class="fil3 str0" points="2270,3929 2272,4004 2775,4009 2775,3922 "/>
     <polygon class="fil3 str0" points="2775,4009 2848,3851 2848,3804 2772,3937 "/>
     <g>
      <path class="fil3 str0" d="M2464 3671c0,0 12,-23 -5,-33 -17,-10 -35,13 -45,22 -10,8 -219,146 -226,168 -7,22 0,70 45,75 45,5 85,-25 105,-30 20,-5 28,-7 28,-7l138 -186 -40 -8z"/>
      <path class="fil3 str0" d="M2233 3902c45,5 85,-25 105,-30 20,-5 28,-7 28,-7l5 -7 -130 -26c0,0 -23,-23 -53,-5 -7,22 0,70 45,75z"/>
      <path class="fil3 str0" d="M2242 3833c0,0 268,0 389,0 121,0 158,-7 158,-7l75 -155c0,0 -236,15 -309,10 -73,-5 -90,-10 -90,-10l-223 161z"/>
      <path class="fil3 str0" d="M2242 3833l7 30c0,0 316,2 399,2 83,0 146,3 146,3l-5 -42 -547 7z"/>
      <polygon class="fil3 str0" points="2793,3867 2863,3708 2863,3671 2788,3826 "/>
     </g>
    </g>
    <g>
     <path class="fil3 str0" d="M3915 4054l-952 0c-9,0 -16,-7 -16,-16 0,-9 7,-16 16,-16l952 0c9,0 16,7 16,16 0,9 -7,16 -16,16z"/>
     <path class="fil3 str0" d="M3923 4022l-968 0c-7,0 -14,-6 -14,-13l-53 -633c-1,-8 6,-16 14,-16l1074 0c8,0 15,7 14,16l-53 633c-1,7 -7,13 -14,13z"/>
     <path class="fil3 str0" d="M3530 3702c0,38 -41,68 -91,68 -51,0 -91,-31 -91,-68 0,-38 41,-68 91,-68 50,0 91,31 91,68z"/>
    </g>
    <g>
     <path class="fil5 str1" d="M4477 3208c15,-13 26,-27 30,-46 3,-15 3,-29 -1,-41"/>
     <path class="fil5 str1" d="M4366 3703c0,0 92,-55 62,-119 -30,-64 -132,-105 -132,-204 0,-85 91,-117 150,-151"/>
     <path class="fil5 str1" d="M4451 3702c0,0 52,-34 52,-89 0,-37 -39,-60 -91,-119"/>
     <path class="fil5 str1" d="M4383 3458c0,0 -34,-27 -9,-76"/>
    </g>
    <g>
     <path class="fil4" d="M3601 2003c17,-3 52,-17 76,-72 2,-4 0,-8 -4,-9 -4,-2 -8,0 -9,4 -22,51 -53,62 -66,65 23,-28 37,-63 37,-100 0,-96 -89,-174 -199,-174 -110,0 -199,78 -199,174 0,36 12,69 33,97 -21,-1 -56,8 -101,60 -3,3 -2,7 1,10 1,1 3,2 5,2 2,0 4,-1 5,-2 57,-67 95,-56 103,-53 -14,8 -27,17 -36,25 -64,58 -103,166 -98,258 5,91 63,166 63,166 0,0 65,-42 113,-126 25,-44 44,-84 56,-114 0,41 5,90 27,125 48,78 116,91 156,91 20,0 32,-3 33,-3 2,-1 3,-2 4,-4 54,11 107,10 115,-1 13,-18 32,-75 38,-145 10,-116 -64,-219 -151,-272zm-184 326l0 0c-27,-44 -26,-116 -23,-157 1,-3 2,-5 2,-5 0,0 -3,131 113,218 16,12 38,22 62,29 -34,2 -104,-4 -153,-85z"/>
     <path class="fil5 str5" d="M3420 2111c0,0 -11,84 96,167 107,83 208,50 208,50"/>
     <path class="fil5 str5" d="M3436 2083c0,0 113,164 268,121"/>
     <path class="fil5 str5" d="M3380 2029c0,0 -53,-31 -113,9 -60,40 -90,134 -90,134"/>
     <path class="fil5 str5" d="M3383 2074c0,0 -48,-13 -78,17 -30,30 -37,46 -37,46"/>
    </g>
   </g>
   <g>
    <path class="fil4 str0" d="M2575 3164c0,-142 -115,-258 -258,-258 -142,0 -258,115 -258,258 0,142 115,258 258,258 142,0 258,-115 258,-258z"/>
    <path class="fil3 str0" d="M2534 3164c0,-120 -97,-218 -218,-218 -120,0 -218,97 -218,218 0,120 97,218 218,218 120,0 218,-97 218,-218z"/>
    <polyline class="fil5 str6" points="2317,3007 2317,3164 2423,3164 "/>
   </g>
   <g>
    <path class="fil4 str0" d="M5338 2859l-607 0c-50,0 -90,40 -90,90l0 325c0,50 40,90 90,90l19 0c-19,42 -55,106 -113,144 0,0 123,-9 252,-144l450 0c50,0 90,-40 90,-90l0 -325c0,-50 -40,-90 -90,-90z"/>
    <g>
     <path class="fil1 str0" d="M4930 3099c0,-26 -21,-46 -46,-46 -26,0 -46,21 -46,46 0,26 21,46 46,46 26,0 46,-21 46,-46z"/>
     <path class="fil1 str0" d="M5088 3099c0,-26 -21,-46 -46,-46 -26,0 -46,21 -46,46 0,26 21,46 46,46 26,0 46,-21 46,-46z"/>
     <path class="fil1 str0" d="M5245 3099c0,-26 -21,-46 -46,-46 -26,0 -46,21 -46,46 0,26 21,46 46,46 26,0 46,-21 46,-46z"/>
    </g>
   </g>
  </g>
 </g>
</svg>
